<svg clip-rule="evenodd" fill-rule="evenodd" stroke-linejoin="round" stroke-miterlimit="2" viewBox="0 0 450 150" xmlns="http://www.w3.org/2000/svg"><g fill-rule="nonzero"><path d="m231.1 53.6h-38.7v58.8h38.7c16.2 0 29.4-13.2 29.4-29.4s-13.2-29.4-29.4-29.4" transform="matrix(.91352 0 0 .91352 -5.11571 -.822168)"/><path d="m1.6 83c0 45.4 36.8 82.1 82.1 82.1s82.1-36.8 82.1-82.1-36.7-82.1-82.1-82.1-82.1 36.7-82.1 82.1" transform="matrix(.91352 0 0 .91352 -1.46163 -.822168)"/><path d="m260 48.143h4.999c14.799 0 26.857 12.058 26.857 26.857s-12.058 26.857-26.857 26.857h-4.999v48.143h190v-150h-190z" fill="#654ff0"/><path d="m142.16 329.81h40.56l27.69 147.47h.5l33.28-147.47h37.94l30.06 149.28h.59l31.56-149.28h39.78l-51.69 216.69h-40.25l-29.81-147.47h-.78l-31.91 147.47h-41zm287.69 0h63.94l63.5 216.69h-41.84l-13.81-48.22h-72.84l-10.66 48.22h-40.75zm24.34 53.41-17.69 79.5h55.06l-20.31-79.5z" fill="#fff" transform="matrix(.245098 0 0 .245098 300 -0)"/></g></svg>