<svg viewBox="0 0 181 121" xmlns="http://www.w3.org/2000/svg">
<path d="M135.135 0C135.135 0.211765 135.135 0.423529 135.135 0.647059C135.135 8.24706 129.029 14.4059 121.498 14.4059C113.965 14.4059 107.861 8.2451 107.861 0.647059C107.861 0.423529 107.861 0.211765 107.861 0H1V120H181V0H135.135Z" fill="black"/>
<path d="M89.4385 65.1686H97.3251L102.709 94.0843H102.807L109.278 65.1686H116.655L122.5 94.4392H122.615L128.751 65.1686H136.486L126.435 107.657H118.609L112.813 78.7412H112.661L106.456 107.657H98.484L89.4385 65.1686ZM145.378 65.1686H157.811L170.158 107.657H162.023L159.337 98.202H145.174L143.101 107.657H135.178L145.378 65.1686ZM150.111 75.6412L146.671 91.2294H157.377L153.428 75.6412H150.111Z" fill="#FFF100"/>
<path fill-rule="evenodd" clip-rule="evenodd" d="M39.4642 111.93C25.3642 111.93 13.9775 100.442 13.9775 86.2152C13.9775 71.9888 25.3642 60.5 39.4642 60.5C53.5642 60.5 64.9509 71.9888 64.9509 86.2152C64.9509 100.442 53.5642 111.93 39.4642 111.93ZM53.0926 82.3856H48.0928V89.9986H53.0926C55.1657 89.9986 56.8882 88.2607 56.8882 86.169C56.8882 84.062 55.1657 82.3856 53.0926 82.3856ZM34.1613 96.8734C28.3384 96.8734 23.5977 92.0903 23.5977 86.2152C23.5977 80.3401 28.3384 75.5569 34.1613 75.5569C39.9842 75.5569 44.7249 80.3401 44.7249 86.2152C44.7249 92.0903 39.9842 96.8734 34.1613 96.8734Z" fill="#FFF100"/>
</svg>

