<?xml version="1.0" encoding="utf-8"?>
<!-- Generator: Adobe Illustrator 24.1.3, SVG Export Plug-In . SVG Version: 6.00 Build 0)  -->
<svg version="1.1" id="Ebene_1" xmlns="http://www.w3.org/2000/svg" xmlns:xlink="http://www.w3.org/1999/xlink" x="0px" y="0px"
	 viewBox="0 0 100 100" style="enable-background:new 0 0 100 100;" xml:space="preserve">
<g>
	<path d="M50,1C22.9,1,1,22.9,1,50c0,27.1,21.9,49,49,49s49-21.9,49-49C99,22.9,77.1,1,50,1z M38.3,70.3C27.1,70.3,18,61.2,18,50
		s9.1-20.3,20.3-20.3S58.6,38.8,58.6,50S49.5,70.3,38.3,70.3z M74.7,57.2h-9.6V42.7h9.6c4,0,7.3,3.2,7.3,7.2S78.7,57.2,74.7,57.2z"
		/>
</g>
</svg>
